<svg id="Layer_1" data-name="Layer 1" xmlns="http://www.w3.org/2000/svg" viewBox="0 0 574.18 132.32"><defs><style>.cls-1{fill:#fff;}</style></defs><title>logo</title><path class="cls-1" d="M44.56,79.58,35.31,62H23V79.58H6.39V16H35q12.6,0,19.54,5.85t6.93,16.45a25.12,25.12,0,0,1-2.9,12.38,20.12,20.12,0,0,1-8.43,8.11L63.32,79.58ZM23,48.76H35c3.38,0,6-.85,7.84-2.54s2.77-4.14,2.77-7.34a9.11,9.11,0,0,0-2.77-7.12C41,30.1,38.42,29.27,35,29.27H23Z" transform="translate(-6.39 -7.97)"/><path class="cls-1" d="M86,10.37a8.4,8.4,0,0,1,2.4,6.21A8.43,8.43,0,0,1,86,22.74a8.87,8.87,0,0,1-12.24,0,8.43,8.43,0,0,1-2.4-6.16,8.4,8.4,0,0,1,2.4-6.21,9,9,0,0,1,12.24,0ZM72,30.54h16v49H72Z" transform="translate(-6.39 -7.97)"/><path class="cls-1" d="M122.43,43.32a8.71,8.71,0,0,0-7.07,3.31,13,13,0,0,0-2.72,8.57,13,13,0,0,0,2.72,8.61,8.78,8.78,0,0,0,7.07,3.26q6.7,0,9.61-5.53l11.87,6.8a20.09,20.09,0,0,1-8.7,8.7,28.52,28.52,0,0,1-13.6,3.09A27.33,27.33,0,0,1,108.38,77a21.6,21.6,0,0,1-8.84-8.7,26.36,26.36,0,0,1-3.13-13.05A27.09,27.09,0,0,1,99.58,42a22,22,0,0,1,8.93-8.89A29.66,29.66,0,0,1,134.85,33a21.94,21.94,0,0,1,8.88,8.57L132,48.4A11,11,0,0,0,122.43,43.32Z" transform="translate(-6.39 -7.97)"/><path class="cls-1" d="M190,37.07q6.43,7.07,6.44,19.39,0,1.9-.09,2.91H162.22a11.83,11.83,0,0,0,4.08,6.39A11.3,11.3,0,0,0,173.37,68a15.22,15.22,0,0,0,6.12-1.27,17.43,17.43,0,0,0,5.4-3.72l8.43,8.43a24.91,24.91,0,0,1-9.2,6.48,31.62,31.62,0,0,1-12.2,2.23A29.29,29.29,0,0,1,158.14,77a21.46,21.46,0,0,1-9-8.7A26.46,26.46,0,0,1,146,55.29,27,27,0,0,1,149.17,42a22,22,0,0,1,9-8.89A27.91,27.91,0,0,1,171.56,30Q183.53,30,190,37.07Zm-9.24,13.68a9.4,9.4,0,0,0-2.5-6.84,9.49,9.49,0,0,0-13,0,12.65,12.65,0,0,0-3.4,6.89Z" transform="translate(-6.39 -7.97)"/><path class="cls-1" d="M272.18,82.39l-3.35-3.26q-2-1.81-5.53-5.35a28.33,28.33,0,0,1-18,6.53A25.77,25.77,0,0,1,234.2,78a18.76,18.76,0,0,1-7.8-6.57,16.88,16.88,0,0,1-2.81-9.57A14.64,14.64,0,0,1,227,52a31.92,31.92,0,0,1,9.15-7.12,32.94,32.94,0,0,1-4-7.3,19.17,19.17,0,0,1-1.22-6.75,13.93,13.93,0,0,1,4.94-11.24q4.94-4.17,13.28-4.17a23.62,23.62,0,0,1,9.51,1.81,15.09,15.09,0,0,1,6.49,5.08,12.53,12.53,0,0,1,2.31,7.43,13.37,13.37,0,0,1-3.9,9.88,44.28,44.28,0,0,1-10.88,7.53q3.54,4,9.61,10A50.21,50.21,0,0,0,266.38,47l10.24,7.43a49.78,49.78,0,0,1-5.71,11.06l3.36,3.17,6.07,5.71ZM255,65.62q-7.26-7.07-12.6-13.05a15.3,15.3,0,0,0-4.17,3.67,7,7,0,0,0-1.45,4.3,7.62,7.62,0,0,0,2.63,6A9.63,9.63,0,0,0,246,68.88,15,15,0,0,0,255,65.62Zm-8.43-26.2a26,26,0,0,0,6.12-4.35,7.13,7.13,0,0,0,2.13-5.17,5.21,5.21,0,0,0-1.5-3.85,5.43,5.43,0,0,0-4-1.49,5.56,5.56,0,0,0-4.31,1.72,6.29,6.29,0,0,0-1.58,4.44C243.36,33.26,244.41,36.16,246.53,39.42Z" transform="translate(-6.39 -7.97)"/><path class="cls-1" d="M349.92,18a18.31,18.31,0,0,1,8.2,5.58,13.26,13.26,0,0,1,2.9,8.52,13.57,13.57,0,0,1-2.95,8.7,14.74,14.74,0,0,1-8,5.08,15.55,15.55,0,0,1,9.56,5.53A16.24,16.24,0,0,1,363.1,61.9a15.3,15.3,0,0,1-3,9.39,18.54,18.54,0,0,1-8.52,6.16,36,36,0,0,1-13,2.13H307.26V16h30.19A36.16,36.16,0,0,1,349.92,18ZM342,39.65A5.78,5.78,0,0,0,344,35a5.42,5.42,0,0,0-2-4.49A8.19,8.19,0,0,0,336.54,29H323.85V41.33h12.69A8.17,8.17,0,0,0,342,39.65Zm1.45,25.25A5.9,5.9,0,0,0,346,59.82a5.52,5.52,0,0,0-2.54-4.76,11.43,11.43,0,0,0-6.89-1.68H323.85V66.71h12.69A11.63,11.63,0,0,0,343.43,64.9Z" transform="translate(-6.39 -7.97)"/><path class="cls-1" d="M412.15,37.07q6.44,7.07,6.43,19.39,0,1.9-.09,2.91H384.41a11.71,11.71,0,0,0,4.08,6.39A11.28,11.28,0,0,0,395.56,68a15.29,15.29,0,0,0,6.12-1.27A17.39,17.39,0,0,0,407.07,63l8.43,8.43a24.91,24.91,0,0,1-9.2,6.48,31.61,31.61,0,0,1-12.19,2.23A29.26,29.26,0,0,1,380.33,77a21.34,21.34,0,0,1-9-8.7,26.36,26.36,0,0,1-3.13-13.05A27.09,27.09,0,0,1,371.35,42a22,22,0,0,1,9-8.89A27.87,27.87,0,0,1,393.74,30Q405.71,30,412.15,37.07ZM402.9,50.75a9.43,9.43,0,0,0-2.49-6.84,9.51,9.51,0,0,0-13,0,12.71,12.71,0,0,0-3.4,6.89Z" transform="translate(-6.39 -7.97)"/><path class="cls-1" d="M464.72,34.57q5.63,4.68,5.72,13.1V79.58H454.57V74.05q-4.89,6.26-14.77,6.26-7.8,0-12.29-4.22A14.53,14.53,0,0,1,423,65q0-7,4.85-10.88t13.92-4h12.78v-.54a6.54,6.54,0,0,0-2.4-5.44q-2.4-1.91-6.94-1.91a28.21,28.21,0,0,0-6.93,1,41.47,41.47,0,0,0-7.75,2.9l-4.44-10.88a64.39,64.39,0,0,1,11.46-4A48.49,48.49,0,0,1,449,29.9Q459.11,29.9,464.72,34.57Zm-13.59,33A7.64,7.64,0,0,0,454.57,63V58.73H445q-6.79,0-6.8,5.08a5,5,0,0,0,1.77,4,7.27,7.27,0,0,0,4.85,1.5A11.4,11.4,0,0,0,451.13,67.57Z" transform="translate(-6.39 -7.97)"/><path class="cls-1" d="M526.59,35q4.86,5.09,4.85,13.69V79.58h-16V53.29a9.19,9.19,0,0,0-2.27-6.57,8,8,0,0,0-6.07-2.4A9.26,9.26,0,0,0,500.49,47a10.63,10.63,0,0,0-3,6.7V79.58H481.31v-49h16.14v8a17.42,17.42,0,0,1,6.75-6.44,20,20,0,0,1,9.48-2.18Q521.73,29.9,526.59,35Z" transform="translate(-6.39 -7.97)"/><path class="cls-1" d="M559.55,41.05a6.45,6.45,0,0,0-3.36.77,2.54,2.54,0,0,0-1.27,2.32,3,3,0,0,0,2,2.63,36.57,36.57,0,0,0,6.34,2.17A79.1,79.1,0,0,1,572,52a15.92,15.92,0,0,1,6,4.53,12,12,0,0,1,2.54,7.93,13.63,13.63,0,0,1-5.76,11.65q-5.76,4.22-15,4.22a40.23,40.23,0,0,1-12-1.77,31.79,31.79,0,0,1-10.15-5.21l5.07-10.43a35.74,35.74,0,0,0,8.75,4.49A26.4,26.4,0,0,0,560.18,69a7.77,7.77,0,0,0,3.76-.77A2.41,2.41,0,0,0,565.35,66a3.09,3.09,0,0,0-2-2.81A38.76,38.76,0,0,0,556.92,61a70.87,70.87,0,0,1-8.52-3,16,16,0,0,1-5.85-4.49,11.76,11.76,0,0,1-2.49-7.79A13.74,13.74,0,0,1,545.68,34q5.61-4.22,14.5-4.22a39.41,39.41,0,0,1,20.4,5.71L575.14,46Q565.62,41.06,559.55,41.05Z" transform="translate(-6.39 -7.97)"/><path class="cls-1" d="M145.86,118.28a10.46,10.46,0,0,0-9.21.56,10.14,10.14,0,0,0-3.76,3.74,10.29,10.29,0,0,0,0,10.33,10.29,10.29,0,0,0,3.76,3.74,10,10,0,0,0,5.21,1.39,10.48,10.48,0,0,0,4-.79,11.17,11.17,0,0,0,3.44-2.2l1.48,1.58a13.94,13.94,0,0,1-4.18,2.67,12.28,12.28,0,0,1-4.81,1,12.66,12.66,0,0,1-11-6.24,12.1,12.1,0,0,1-1.7-6.29,11.83,11.83,0,0,1,1.72-6.25,12.88,12.88,0,0,1,11-6.17,12.79,12.79,0,0,1,4.81.93,12.94,12.94,0,0,1,4.07,2.58l-1.44,1.68A10.53,10.53,0,0,0,145.86,118.28Z" transform="translate(-6.39 -7.97)"/><path class="cls-1" d="M191.87,140.07l-5.3-8c-.75.05-1.32.07-1.72.07h-6.74v7.93h-2.42V115.54h9.16q4.6,0,7.11,2.12a7.46,7.46,0,0,1,2.51,6,8.4,8.4,0,0,1-1.48,5.09,7.6,7.6,0,0,1-4.21,2.84l5.9,8.46Zm-7-10.11a8.21,8.21,0,0,0,5.41-1.59,5.72,5.72,0,0,0,1.89-4.62,5.47,5.47,0,0,0-1.89-4.49,8.38,8.38,0,0,0-5.41-1.55h-6.74V130Z" transform="translate(-6.39 -7.97)"/><path class="cls-1" d="M220.72,115.54h16.43v2.17h-14v8.78h12.53v2.18H223.14v9.23H237.6v2.17H220.72Z" transform="translate(-6.39 -7.97)"/><path class="cls-1" d="M281.51,140.07l-2.91-6.53H265l-2.88,6.53h-2.6l11.06-24.53h2.53l11.05,24.53Zm-15.58-8.7h11.72l-5.9-13.27Z" transform="translate(-6.39 -7.97)"/><path class="cls-1" d="M302.08,115.5h18.64v2.21h-8.11v22.36h-2.42V117.71h-8.11Z" transform="translate(-6.39 -7.97)"/><path class="cls-1" d="M344.62,115.54H347v24.53h-2.42Z" transform="translate(-6.39 -7.97)"/><path class="cls-1" d="M370.8,115.54h2.6l8.74,21.87,8.7-21.87h2.56l-10.07,24.53H380.8Z" transform="translate(-6.39 -7.97)"/><path class="cls-1" d="M417.16,115.54h16.43v2.17h-14v8.78h12.53v2.18H419.59v9.23h14.46v2.17H417.16Z" transform="translate(-6.39 -7.97)"/></svg>